<mxfile host="app.diagrams.net" agent="Mozilla/5.0 (Windows NT 10.0; Win64; x64) AppleWebKit/537.36 (KHTML, like Gecko) Chrome/131.0.0.0 Safari/537.36" version="24.7.7">
  <diagram name="Page-1" id="bfe91b75-5d2c-26a0-9c1d-138518896778">
    <mxGraphModel dx="1000" dy="1044" grid="1" gridSize="10" guides="1" tooltips="1" connect="1" arrows="1" fold="1" page="1" pageScale="1" pageWidth="1100" pageHeight="850" background="#000000" math="0" shadow="0">
      <root>
        <mxCell id="0" />
        <mxCell id="1" parent="0" />
        <mxCell id="A8OUuL54NIGdeR7F4NT8-13" style="edgeStyle=orthogonalEdgeStyle;rounded=0;orthogonalLoop=1;jettySize=auto;html=1;entryX=0.5;entryY=0;entryDx=0;entryDy=0;" edge="1" parent="1" source="7c3789c024ecab99-53" target="A8OUuL54NIGdeR7F4NT8-1">
          <mxGeometry relative="1" as="geometry" />
        </mxCell>
        <mxCell id="A8OUuL54NIGdeR7F4NT8-14" style="rounded=0;orthogonalLoop=1;jettySize=auto;html=1;entryX=0.5;entryY=0;entryDx=0;entryDy=0;strokeColor=#007FFF;strokeWidth=3;startArrow=classic;startFill=1;" edge="1" parent="1" source="7c3789c024ecab99-53" target="A8OUuL54NIGdeR7F4NT8-1">
          <mxGeometry relative="1" as="geometry" />
        </mxCell>
        <mxCell id="7c3789c024ecab99-53" value="CSCF" style="html=1;fillColor=#1ba1e2;strokeColor=#006EAF;gradientDirection=north;strokeWidth=2;shape=mxgraph.networks.cloud;rounded=0;shadow=0;comic=0;align=center;fontSize=28;fontColor=#ffffff;" parent="1" vertex="1">
          <mxGeometry x="1560" y="90" width="330" height="140" as="geometry" />
        </mxCell>
        <mxCell id="A8OUuL54NIGdeR7F4NT8-9" value="" style="edgeStyle=orthogonalEdgeStyle;rounded=0;orthogonalLoop=1;jettySize=auto;html=1;strokeColor=#007FFF;strokeWidth=3;startArrow=classic;startFill=1;" edge="1" parent="1" source="A8OUuL54NIGdeR7F4NT8-1" target="A8OUuL54NIGdeR7F4NT8-8">
          <mxGeometry relative="1" as="geometry" />
        </mxCell>
        <mxCell id="A8OUuL54NIGdeR7F4NT8-1" value="&lt;font style=&quot;font-size: 24px;&quot;&gt;分发lb&lt;/font&gt;" style="rounded=0;whiteSpace=wrap;html=1;" vertex="1" parent="1">
          <mxGeometry x="1520" y="330" width="120" height="60" as="geometry" />
        </mxCell>
        <mxCell id="A8OUuL54NIGdeR7F4NT8-6" value="" style="edgeStyle=orthogonalEdgeStyle;rounded=0;orthogonalLoop=1;jettySize=auto;html=1;strokeColor=#007FFF;strokeWidth=3;" edge="1" parent="1" source="A8OUuL54NIGdeR7F4NT8-2" target="A8OUuL54NIGdeR7F4NT8-5">
          <mxGeometry relative="1" as="geometry" />
        </mxCell>
        <mxCell id="A8OUuL54NIGdeR7F4NT8-2" value="&lt;font style=&quot;font-size: 24px;&quot;&gt;lb(新通话+彩铃)&lt;/font&gt;" style="rounded=0;whiteSpace=wrap;html=1;" vertex="1" parent="1">
          <mxGeometry x="1230" y="530" width="120" height="60" as="geometry" />
        </mxCell>
        <mxCell id="A8OUuL54NIGdeR7F4NT8-22" value="" style="edgeStyle=orthogonalEdgeStyle;rounded=0;orthogonalLoop=1;jettySize=auto;html=1;strokeColor=#007FFF;strokeWidth=3;" edge="1" parent="1" source="A8OUuL54NIGdeR7F4NT8-5" target="A8OUuL54NIGdeR7F4NT8-20">
          <mxGeometry relative="1" as="geometry" />
        </mxCell>
        <mxCell id="A8OUuL54NIGdeR7F4NT8-23" style="edgeStyle=orthogonalEdgeStyle;rounded=0;orthogonalLoop=1;jettySize=auto;html=1;entryX=0;entryY=0.5;entryDx=0;entryDy=0;strokeColor=#007FFF;strokeWidth=3;startArrow=classic;startFill=1;" edge="1" parent="1" source="A8OUuL54NIGdeR7F4NT8-5" target="A8OUuL54NIGdeR7F4NT8-18">
          <mxGeometry relative="1" as="geometry" />
        </mxCell>
        <mxCell id="A8OUuL54NIGdeR7F4NT8-5" value="&lt;span style=&quot;font-size: 24px;&quot;&gt;新通话+彩铃as&lt;/span&gt;" style="whiteSpace=wrap;html=1;rounded=0;" vertex="1" parent="1">
          <mxGeometry x="1230" y="710" width="120" height="60" as="geometry" />
        </mxCell>
        <mxCell id="A8OUuL54NIGdeR7F4NT8-10" style="edgeStyle=orthogonalEdgeStyle;rounded=0;orthogonalLoop=1;jettySize=auto;html=1;entryX=0.5;entryY=0;entryDx=0;entryDy=0;strokeColor=#007FFF;strokeWidth=3;startArrow=classic;startFill=1;" edge="1" parent="1" source="A8OUuL54NIGdeR7F4NT8-8" target="A8OUuL54NIGdeR7F4NT8-2">
          <mxGeometry relative="1" as="geometry" />
        </mxCell>
        <mxCell id="A8OUuL54NIGdeR7F4NT8-12" value="" style="edgeStyle=orthogonalEdgeStyle;rounded=0;orthogonalLoop=1;jettySize=auto;html=1;strokeColor=#007FFF;strokeWidth=3;" edge="1" parent="1" source="A8OUuL54NIGdeR7F4NT8-8" target="A8OUuL54NIGdeR7F4NT8-11">
          <mxGeometry relative="1" as="geometry" />
        </mxCell>
        <mxCell id="A8OUuL54NIGdeR7F4NT8-21" style="edgeStyle=orthogonalEdgeStyle;rounded=0;orthogonalLoop=1;jettySize=auto;html=1;entryX=0.5;entryY=0;entryDx=0;entryDy=0;strokeColor=#007FFF;strokeWidth=3;startArrow=classic;startFill=1;" edge="1" parent="1" source="A8OUuL54NIGdeR7F4NT8-8" target="A8OUuL54NIGdeR7F4NT8-18">
          <mxGeometry relative="1" as="geometry" />
        </mxCell>
        <mxCell id="A8OUuL54NIGdeR7F4NT8-8" value="&lt;font style=&quot;font-size: 24px;&quot;&gt;分发as&lt;/font&gt;" style="whiteSpace=wrap;html=1;rounded=0;" vertex="1" parent="1">
          <mxGeometry x="1520" y="450" width="120" height="60" as="geometry" />
        </mxCell>
        <mxCell id="A8OUuL54NIGdeR7F4NT8-11" value="&lt;font style=&quot;font-size: 24px;&quot;&gt;东信语音平台&lt;/font&gt;" style="whiteSpace=wrap;html=1;rounded=0;fillColor=#0050ef;fontColor=#ffffff;strokeColor=#001DBC;" vertex="1" parent="1">
          <mxGeometry x="1720" y="450" width="120" height="60" as="geometry" />
        </mxCell>
        <mxCell id="A8OUuL54NIGdeR7F4NT8-18" value="&lt;font style=&quot;font-size: 24px;&quot;&gt;DB&lt;/font&gt;" style="rounded=0;whiteSpace=wrap;html=1;" vertex="1" parent="1">
          <mxGeometry x="1440" y="620" width="120" height="60" as="geometry" />
        </mxCell>
        <mxCell id="A8OUuL54NIGdeR7F4NT8-20" value="&lt;font style=&quot;font-size: 24px;&quot;&gt;MS媒体&lt;/font&gt;" style="rounded=0;whiteSpace=wrap;html=1;" vertex="1" parent="1">
          <mxGeometry x="1440" y="730" width="120" height="60" as="geometry" />
        </mxCell>
      </root>
    </mxGraphModel>
  </diagram>
</mxfile>
